<svg width="1600" height="900" viewBox="0 0 1600 900" fill="none" xmlns="http://www.w3.org/2000/svg">
  <rect width="1600" height="900" fill="#111827"/>
  <rect width="1600" height="540" fill="url(#warm)"/>
  <circle cx="1240" cy="160" r="108" fill="#FEF3C7"/>
  <path d="M0 610C153 571 293 563 420 586C547 609 662 664 789 669C916 674 1032 629 1156 611C1280 593 1413 603 1600 662V900H0V610Z" fill="#7C2D12"/>
  <path d="M0 710C169 736 322 778 470 774C618 770 748 721 888 708C1028 695 1168 718 1299 746C1430 774 1528 779 1600 770V900H0V710Z" fill="#92400E"/>
  <ellipse cx="800" cy="600" rx="360" ry="118" fill="#F8FAFC"/>
  <ellipse cx="800" cy="598" rx="300" ry="88" fill="#F59E0B"/>
  <ellipse cx="800" cy="598" rx="232" ry="64" fill="#FDE68A"/>
  <circle cx="675" cy="566" r="28" fill="#EF4444"/>
  <circle cx="873" cy="554" r="26" fill="#10B981"/>
  <circle cx="936" cy="628" r="24" fill="#F97316"/>
  <circle cx="739" cy="640" r="22" fill="#0EA5E9"/>
  <path d="M1136 332C1136 387.228 1091.23 432 1036 432C980.772 432 936 387.228 936 332C936 276.772 980.772 232 1036 232C1091.23 232 1136 276.772 1136 332Z" fill="#111827" fill-opacity="0.16"/>
  <path d="M1024 240C1024 284.183 988.183 320 944 320C899.817 320 864 284.183 864 240C864 195.817 899.817 160 944 160C988.183 160 1024 195.817 1024 240Z" fill="#FEF3C7" fill-opacity="0.18"/>
  <path d="M404 675C520 626 635 613 741 629C847 645 941 690 1053 690C1165 690 1270 645 1370 635C1470 625 1552 647 1600 672" stroke="#FEF3C7" stroke-opacity="0.7" stroke-width="14" stroke-linecap="round" stroke-dasharray="2 24"/>
  <path d="M1583 664L1600 672L1585 689L1583 664Z" fill="#FEF3C7"/>
  <defs>
    <linearGradient id="warm" x1="800" y1="0" x2="800" y2="540" gradientUnits="userSpaceOnUse">
      <stop stop-color="#FB923C"/>
      <stop offset="1" stop-color="#FED7AA"/>
    </linearGradient>
  </defs>
</svg>
