<svg width="1600" height="900" viewBox="0 0 1600 900" fill="none" xmlns="http://www.w3.org/2000/svg">
  <rect width="1600" height="900" fill="#0F172A"/>
  <circle cx="1325" cy="152" r="124" fill="#F59E0B" fill-opacity="0.26"/>
  <circle cx="268" cy="180" r="210" fill="#22D3EE" fill-opacity="0.22"/>
  <path d="M0 530C129 479 249 466 359 492C469 518 577 585 699 591C821 597 931 542 1041 520C1151 498 1270 506 1382 542C1458 566 1530 603 1600 646V900H0V530Z" fill="#1E293B"/>
  <path d="M0 628C119 658 215 705 344 712C473 719 592 675 724 666C856 657 1004 682 1116 721C1228 760 1326 812 1600 778V900H0V628Z" fill="#334155"/>
  <rect x="154" y="188" width="458" height="276" rx="32" fill="white" fill-opacity="0.1" stroke="white" stroke-opacity="0.16" stroke-width="4"/>
  <rect x="204" y="244" width="360" height="14" rx="7" fill="white" fill-opacity="0.72"/>
  <rect x="204" y="286" width="204" height="14" rx="7" fill="#67E8F9"/>
  <rect x="204" y="336" width="302" height="12" rx="6" fill="white" fill-opacity="0.36"/>
  <rect x="204" y="372" width="328" height="12" rx="6" fill="white" fill-opacity="0.36"/>
  <rect x="204" y="408" width="256" height="12" rx="6" fill="white" fill-opacity="0.36"/>
  <rect x="742" y="170" width="530" height="334" rx="36" fill="#E2E8F0"/>
  <rect x="792" y="212" width="430" height="230" rx="28" fill="#BAE6FD"/>
  <path d="M792 401C879 331 984 307 1071 329C1158 351 1217 408 1222 442H792V401Z" fill="#0F766E"/>
  <path d="M919 302L1005 232L1112 282L1140 258L1208 328V442H792V382L919 302Z" fill="#14B8A6"/>
  <circle cx="1122" cy="284" r="28" fill="#FEF3C7"/>
  <path d="M1248 575C1180 512 1077 477 968 490C858 503 764 558 698 640" stroke="#F8FAFC" stroke-opacity="0.55" stroke-width="18" stroke-linecap="round" stroke-dasharray="4 30"/>
  <path d="M683 647L730 646L709 686L683 647Z" fill="#F8FAFC"/>
  <circle cx="690" cy="640" r="30" fill="#F8FAFC"/>
  <circle cx="690" cy="640" r="18" fill="#0F172A"/>
  <rect x="1068" y="608" width="304" height="136" rx="28" fill="white" fill-opacity="0.1" stroke="white" stroke-opacity="0.16" stroke-width="4"/>
  <rect x="1116" y="650" width="120" height="16" rx="8" fill="white" fill-opacity="0.78"/>
  <rect x="1116" y="686" width="196" height="12" rx="6" fill="white" fill-opacity="0.35"/>
  <rect x="1116" y="718" width="160" height="12" rx="6" fill="white" fill-opacity="0.35"/>
</svg>
